<!DOCTYPE svg PUBLIC "-//W3C//DTD SVG 1.1//EN" "http://www.w3.org/Graphics/SVG/1.1/DTD/svg11.dtd">
<!-- Uploaded to: SVG Repo, www.svgrepo.com, Transformed by: SVG Repo Mixer Tools -->
<svg height="800px" width="800px" version="1.1" id="Capa_1" xmlns="http://www.w3.org/2000/svg" xmlns:xlink="http://www.w3.org/1999/xlink" viewBox="-27.31 -27.31 327.67 327.67" xml:space="preserve" fill="#000000" stroke="#000000" stroke-width="0.00273052">
<g id="SVGRepo_bgCarrier" stroke-width="0">
<rect x="-27.31" y="-27.31" width="327.67" height="327.67" rx="163.835" fill="#d2d1d1" strokewidth="0"/>
</g>
<g id="SVGRepo_tracerCarrier" stroke-linecap="round" stroke-linejoin="round"/>
<g id="SVGRepo_iconCarrier"> <g> <circle style="fill:#010002;" cx="138.173" cy="73.52" r="73.52"/> <path style="fill:#010002;" d="M126.381,171.369c6.728,3.236,17.65,3.236,24.378,0l67.047-32.243 c6.734-3.236,13.989-0.082,16.208,7.054l20.032,64.35c2.219,7.136,0.234,17.65-4.433,23.48l-1.137,1.425 c-3.807,4.759-11.058,8.784-17.661,24.797c-2.85,6.913-10.378,12.82-17.846,12.82H63.043c-7.473,0-14.99-5.901-17.873-12.793 c-6.679-15.947-14.163-19.776-18.259-24.291l-3.263-3.612c-5.015-5.537-6.995-15.719-4.427-22.735L42.5,145.974 c2.567-7.016,10.106-10.079,16.839-6.842L126.381,171.369z"/> </g> </g>
</svg>